<svg xmlns="http://www.w3.org/2000/svg" viewBox="0 0 5000 3300" width="5000" height="3300" preserveAspectRatio="xMidYMid meet">
  <g id="sectors" fill="none" stroke="black" stroke-width="1">
    <polygon id="Sector-000-L" points="95.71,2013.29 154.87,2094.70 95.71,2176.12 0.00,2145.02 0.00,2044.39" />
    <polygon id="Sector-000-R" points="4927.98,2013.29 4987.13,2094.70 4927.98,2176.12 4832.27,2145.02 4832.27,2044.39" />
    <polygon id="Sector-001" points="918.98,2176.12 859.82,2094.70 918.98,2013.29 1014.69,2044.39 1014.69,2145.02" />
    <polygon id="Sector-002" points="3335.41,2176.12 3276.25,2094.70 3335.41,2013.29 3431.12,2044.39 3431.12,2145.02" />
    <polygon id="Sector-003" points="2512.14,2013.29 2571.29,2094.70 2512.14,2176.12 2416.43,2145.02 2416.43,2044.39" />
    <polygon id="Sector-004" points="588.75,2892.25 507.33,2951.40 425.91,2892.25 457.01,2796.53 557.65,2796.53" />
    <polygon id="Sector-005" points="3005.18,2892.25 2923.76,2951.40 2842.34,2892.25 2873.44,2796.53 2974.08,2796.53" />
    <polygon id="Sector-006" points="425.91,1297.79 507.33,1238.64 588.75,1297.79 557.65,1393.51 457.01,1393.51" />
    <polygon id="Sector-007" points="2842.34,1297.79 2923.76,1238.64 3005.18,1297.79 2974.08,1393.51 2873.44,1393.51" />
    <polygon id="Sector-008" points="1633.85,2506.31 1715.27,2447.15 1796.69,2506.31 1765.59,2602.02 1664.95,2602.02" />
    <polygon id="Sector-009" points="4050.27,2506.31 4131.69,2447.15 4213.11,2506.31 4182.01,2602.02 4081.37,2602.02" />
    <polygon id="Sector-010" points="1796.69,1683.04 1715.27,1742.20 1633.85,1683.04 1664.95,1587.33 1765.59,1587.33" />
    <polygon id="Sector-011" points="4213.11,1683.04 4131.69,1742.20 4050.27,1683.04 4081.37,1587.33 4182.01,1587.33" />
    <polygon id="Sector-012" points="4476.71,2142.81 4393.34,2190.94 4309.97,2142.81 4309.97,2046.54 4393.34,1998.41 4476.71,2046.54" />
    <polygon id="Sector-013" points="4738.35,2595.99 4654.99,2644.12 4571.62,2595.99 4571.62,2499.73 4654.99,2451.60 4738.35,2499.73" />
    <polygon id="Sector-014" points="459.22,2439.72 411.08,2356.35 459.22,2272.99 555.48,2272.99 603.61,2356.35 555.48,2439.72" />
    <polygon id="Sector-016" points="4738.35,1689.62 4654.99,1737.75 4571.62,1689.62 4571.62,1593.36 4654.99,1545.23 4738.35,1593.36" />
    <polygon id="Sector-017" points="2875.64,2439.72 2827.51,2356.35 2875.64,2272.99 2971.90,2272.99 3020.03,2356.35 2971.90,2439.72" />
    <polygon id="Sector-019" points="2321.93,1689.62 2238.56,1737.75 2155.20,1689.62 2155.20,1593.36 2238.56,1545.23 2321.93,1593.36" />
    <polygon id="Sector-022" points="1536.98,2142.81 1453.62,2190.94 1370.25,2142.81 1370.25,2046.54 1453.62,1998.41 1536.98,2046.54" />
    <polygon id="Sector-024" points="1667.17,1229.88 1619.04,1146.52 1667.17,1063.15 1763.43,1063.15 1811.56,1146.52 1763.43,1229.88" />
    <polygon id="Sector-025" points="4083.60,1229.88 4035.47,1146.52 4083.60,1063.15 4179.86,1063.15 4227.99,1146.52 4179.86,1229.88" />
    <polygon id="Sector-026" points="3691.76,1689.62 3608.40,1737.75 3525.03,1689.62 3525.03,1593.36 3608.40,1545.23 3691.76,1593.36" />
    <polygon id="Sector-027" points="3953.41,2142.81 3870.05,2190.94 3786.68,2142.81 3786.68,2046.54 3870.04,1998.41 3953.41,2046.54" />
    <polygon id="Sector-028" points="3691.76,2595.99 3608.40,2644.12 3525.03,2595.99 3525.03,2499.73 3608.40,2451.60 3691.76,2499.73" />
    <polygon id="Sector-029" points="4179.79,2958.84 4227.92,3042.20 4179.79,3125.57 4083.53,3125.57 4035.40,3042.20 4083.53,2958.84" />
    <polygon id="Sector-030" points="1763.36,2958.84 1811.49,3042.20 1763.36,3125.57 1667.10,3125.57 1618.97,3042.20 1667.10,2958.84" />
    <polygon id="Sector-031" points="1275.34,2595.99 1191.97,2644.12 1108.61,2595.99 1108.61,2499.73 1191.97,2451.60 1275.34,2499.73" />
    <polygon id="Sector-032" points="4738.35,1991.74 4654.99,2039.87 4571.62,1991.74 4571.62,1895.48 4654.99,1847.35 4738.35,1895.48" />
    <polygon id="Sector-033" points="4738.35,2293.87 4654.99,2342.00 4571.62,2293.87 4571.62,2197.61 4654.99,2149.47 4738.35,2197.61" />
    <polygon id="Sector-034" points="5000.00,2444.93 4916.63,2493.06 4833.27,2444.93 4833.27,2348.67 4916.63,2300.54 5000.00,2348.67" />
    <polygon id="Sector-035" points="308.15,2178.07 260.02,2094.70 308.15,2011.34 404.42,2011.34 452.55,2094.70 404.42,2178.07" />
    <polygon id="Sector-036" points="5000.00,1840.68 4916.63,1888.81 4833.27,1840.68 4833.27,1744.42 4916.63,1696.29 5000.00,1744.42" />
    <polygon id="Sector-037" points="610.28,2178.07 562.15,2094.70 610.28,2011.34 706.54,2011.34 754.67,2094.70 706.54,2178.07" />
    <polygon id="Sector-038" points="1013.69,2444.93 930.32,2493.06 846.96,2444.93 846.96,2348.67 930.32,2300.54 1013.69,2348.67" />
    <polygon id="Sector-039" points="1275.34,2293.87 1191.97,2342.00 1108.61,2293.87 1108.61,2197.61 1191.97,2149.47 1275.34,2197.61" />
    <polygon id="Sector-040" points="1275.34,1991.74 1191.97,2039.87 1108.61,1991.74 1108.61,1895.48 1191.97,1847.35 1275.34,1895.48" />
    <polygon id="Sector-041" points="1013.69,1840.68 930.32,1888.81 846.96,1840.68 846.96,1744.42 930.33,1696.29 1013.69,1744.42" />
    <polygon id="Sector-042" points="3691.76,2293.87 3608.40,2342.00 3525.03,2293.87 3525.03,2197.61 3608.40,2149.47 3691.76,2197.61" />
    <polygon id="Sector-043" points="3691.76,1991.74 3608.40,2039.87 3525.03,1991.74 3525.03,1895.48 3608.40,1847.35 3691.76,1895.48" />
    <polygon id="Sector-044" points="3430.12,1840.68 3346.75,1888.81 3263.39,1840.68 3263.39,1744.42 3346.75,1696.29 3430.12,1744.42" />
    <polygon id="Sector-045" points="3026.70,2178.07 2978.57,2094.70 3026.70,2011.34 3122.97,2011.34 3171.10,2094.70 3122.97,2178.07" />
    <polygon id="Sector-046" points="3430.12,2444.93 3346.75,2493.06 3263.38,2444.93 3263.39,2348.67 3346.75,2300.54 3430.12,2348.67" />
    <polygon id="Sector-047" points="2583.57,2444.93 2500.21,2493.06 2416.84,2444.93 2416.84,2348.67 2500.21,2300.54 2583.57,2348.67" />
    <polygon id="Sector-048" points="2724.58,2178.07 2676.45,2094.70 2724.58,2011.34 2820.84,2011.34 2868.97,2094.70 2820.84,2178.07" />
    <polygon id="Sector-049" points="2583.57,1840.68 2500.21,1888.81 2416.84,1840.68 2416.84,1744.42 2500.21,1696.29 2583.57,1744.42" />
    <polygon id="Sector-050" points="2321.93,1991.74 2238.56,2039.87 2155.20,1991.74 2155.20,1895.48 2238.56,1847.35 2321.93,1895.48" />
    <polygon id="Sector-051" points="2321.93,2293.87 2238.56,2342.00 2155.20,2293.87 2155.20,2197.61 2238.56,2149.47 2321.93,2197.61" />
    <polygon id="Sector-052" points="308.15,2701.36 260.02,2618.00 308.15,2534.63 404.42,2534.63 452.55,2618.00 404.42,2701.36" />
    <polygon id="Sector-053" points="4738.35,2898.12 4654.99,2946.25 4571.62,2898.12 4571.62,2801.85 4654.99,2753.72 4738.35,2801.85" />
    <polygon id="Sector-054" points="590.70,3200.95 507.33,3249.08 423.97,3200.95 423.97,3104.69 507.33,3056.56 590.70,3104.69" />
    <polygon id="Sector-055" points="1275.34,2898.12 1191.97,2946.25 1108.61,2898.12 1108.61,2801.85 1191.97,2753.72 1275.34,2801.85" />
    <polygon id="Sector-056" points="610.28,2701.36 562.15,2618.00 610.28,2534.63 706.54,2534.63 754.67,2618.00 706.54,2701.36" />
    <polygon id="Sector-057" points="3691.76,2898.12 3608.40,2946.25 3525.03,2898.12 3525.03,2801.85 3608.40,2753.72 3691.76,2801.85" />
    <polygon id="Sector-058" points="3026.70,2701.36 2978.57,2618.00 3026.70,2534.63 3122.97,2534.63 3171.10,2618.00 3122.97,2701.36" />
    <polygon id="Sector-059" points="2724.58,2701.36 2676.45,2618.00 2724.58,2534.63 2820.84,2534.63 2868.97,2618.00 2820.84,2701.36" />
    <polygon id="Sector-060" points="2321.93,2898.12 2238.56,2946.25 2155.20,2898.12 2155.20,2801.85 2238.56,2753.72 2321.93,2801.85" />
    <polygon id="Sector-061" points="3007.13,3200.95 2923.76,3249.08 2840.39,3200.95 2840.39,3104.69 2923.76,3056.56 3007.13,3104.69" />
    <polygon id="Sector-062" points="4738.35,1387.50 4654.99,1435.63 4571.62,1387.50 4571.62,1291.23 4654.99,1243.10 4738.35,1291.23" />
    <polygon id="Sector-063" points="308.15,1654.78 260.02,1571.41 308.15,1488.04 404.42,1488.04 452.55,1571.41 404.42,1654.78" />
    <polygon id="Sector-064" points="610.28,1654.78 562.15,1571.41 610.28,1488.04 706.54,1488.04 754.67,1571.41 706.54,1654.78" />
    <polygon id="Sector-065" points="1275.34,1387.50 1191.97,1435.63 1108.61,1387.50 1108.61,1291.23 1191.97,1243.10 1275.34,1291.23" />
    <polygon id="Sector-066" points="423.97,989.09 507.33,940.96 590.70,989.09 590.70,1085.35 507.33,1133.49 423.97,1085.35" />
    <polygon id="Sector-067" points="3026.70,1654.78 2978.57,1571.41 3026.70,1488.04 3122.97,1488.04 3171.10,1571.41 3122.97,1654.78" />
    <polygon id="Sector-068" points="3691.76,1387.50 3608.40,1435.63 3525.03,1387.50 3525.03,1291.23 3608.40,1243.10 3691.76,1291.23" />
    <polygon id="Sector-069" points="2840.39,989.09 2923.76,940.96 3007.13,989.09 3007.13,1085.35 2923.76,1133.49 2840.39,1085.35" />
    <polygon id="Sector-070" points="2321.93,1387.50 2238.56,1435.63 2155.20,1387.50 2155.20,1291.23 2238.56,1243.10 2321.93,1291.23" />
    <polygon id="Sector-071" points="2724.58,1654.78 2676.45,1571.41 2724.58,1488.04 2820.84,1488.04 2868.97,1571.41 2820.84,1654.78" />
    <polygon id="Sector-072" points="1536.98,2747.05 1453.62,2795.19 1370.25,2747.05 1370.25,2650.79 1453.62,2602.66 1536.98,2650.79" />
    <polygon id="Sector-073" points="2060.28,2747.05 1976.91,2795.19 1893.55,2747.05 1893.55,2650.79 1976.91,2602.66 2060.28,2650.79" />
    <polygon id="Sector-074" points="2060.28,2444.93 1976.91,2493.06 1893.55,2444.93 1893.55,2348.67 1976.91,2300.54 2060.28,2348.67" />
    <polygon id="Sector-075" points="1798.63,2293.87 1715.27,2342.00 1631.90,2293.87 1631.90,2197.61 1715.27,2149.47 1798.63,2197.61" />
    <polygon id="Sector-076" points="1536.98,2444.93 1453.62,2493.06 1370.25,2444.93 1370.25,2348.67 1453.62,2300.54 1536.98,2348.67" />
    <polygon id="Sector-077" points="4215.06,2293.87 4131.69,2342.00 4048.33,2293.87 4048.33,2197.61 4131.69,2149.47 4215.06,2197.61" />
    <polygon id="Sector-078" points="3953.41,2444.93 3870.05,2493.06 3786.68,2444.93 3786.68,2348.67 3870.05,2300.54 3953.41,2348.67" />
    <polygon id="Sector-079" points="3953.41,2747.05 3870.05,2795.19 3786.68,2747.05 3786.68,2650.79 3870.05,2602.66 3953.41,2650.79" />
    <polygon id="Sector-080" points="4476.71,2747.05 4393.34,2795.19 4309.97,2747.05 4309.97,2650.79 4393.34,2602.66 4476.71,2650.79" />
    <polygon id="Sector-082" points="1798.63,1991.74 1715.27,2039.87 1631.90,1991.74 1631.90,1895.48 1715.27,1847.35 1798.63,1895.48" />
    <polygon id="Sector-083" points="2060.28,1840.68 1976.91,1888.81 1893.55,1840.68 1893.55,1744.42 1976.91,1696.29 2060.28,1744.42" />
    <polygon id="Sector-084" points="2060.28,1538.56 1976.91,1586.69 1893.55,1538.56 1893.55,1442.30 1976.91,1394.16 2060.28,1442.30" />
    <polygon id="Sector-085" points="1536.98,1538.56 1453.62,1586.69 1370.25,1538.56 1370.25,1442.30 1453.62,1394.16 1536.98,1442.30" />
    <polygon id="Sector-087" points="4476.71,1538.56 4393.34,1586.69 4309.97,1538.56 4309.97,1442.30 4393.34,1394.16 4476.71,1442.30" />
    <polygon id="Sector-088" points="3953.41,1538.56 3870.05,1586.69 3786.68,1538.56 3786.68,1442.30 3870.05,1394.16 3953.41,1442.30" />
    <polygon id="Sector-089" points="3953.41,1840.68 3870.05,1888.81 3786.68,1840.68 3786.68,1744.42 3870.05,1696.29 3953.41,1744.42" />
    <polygon id="Sector-090" points="4215.06,1991.74 4131.69,2039.87 4048.33,1991.74 4048.33,1895.48 4131.69,1847.35 4215.06,1895.48" />
    <polygon id="Sector-091" points="4476.71,1840.68 4393.34,1888.81 4309.97,1840.68 4309.97,1744.42 4393.34,1696.29 4476.71,1744.42" />
    <polygon id="Sector-092" points="4912.78,1991.74 4829.42,2039.87 4746.05,1991.74 4746.05,1895.48 4829.42,1847.35 4912.78,1895.48" />
    <polygon id="Sector-094" points="4912.78,2293.87 4829.42,2342.00 4746.05,2293.87 4746.05,2197.61 4829.42,2149.47 4912.78,2197.61" />
    <polygon id="Sector-095" points="157.09,2265.29 108.96,2181.92 157.09,2098.55 253.35,2098.55 301.48,2181.92 253.35,2265.29" />
    <polygon id="Sector-096" points="157.09,2090.85 108.96,2007.49 157.09,1924.12 253.35,1924.12 301.48,2007.49 253.35,2090.85" />
    <polygon id="Sector-097" points="761.34,2090.85 713.21,2007.49 761.34,1924.12 857.60,1924.12 905.73,2007.49 857.60,2090.85" />
    <polygon id="Sector-098" points="761.34,2265.29 713.21,2181.92 761.34,2098.55 857.60,2098.55 905.73,2181.92 857.60,2265.29" />
    <polygon id="Sector-099" points="1100.91,2293.87 1017.54,2342.00 934.17,2293.87 934.18,2197.61 1017.54,2149.47 1100.91,2197.61" />
    <polygon id="Sector-100" points="1188.12,2142.81 1104.76,2190.94 1021.39,2142.81 1021.39,2046.54 1104.76,1998.41 1188.12,2046.54" />
    <polygon id="Sector-102" points="3517.33,2293.87 3433.97,2342.00 3350.60,2293.87 3350.60,2197.61 3433.97,2149.47 3517.33,2197.61" />
    <polygon id="Sector-103" points="3604.55,2142.81 3521.18,2190.94 3437.82,2142.81 3437.82,2046.54 3521.18,1998.41 3604.55,2046.54" />
    <polygon id="Sector-104" points="3517.33,1991.74 3433.97,2039.87 3350.60,1991.74 3350.60,1895.48 3433.97,1847.35 3517.33,1895.48" />
    <polygon id="Sector-105" points="3177.77,2090.85 3129.63,2007.49 3177.77,1924.12 3274.03,1924.12 3322.16,2007.49 3274.03,2090.85" />
    <polygon id="Sector-106" points="3177.77,2265.29 3129.63,2181.92 3177.77,2098.55 3274.03,2098.55 3322.16,2181.92 3274.03,2265.29" />
    <polygon id="Sector-107" points="2496.36,2293.87 2412.99,2342.00 2329.63,2293.87 2329.63,2197.61 2412.99,2149.47 2496.36,2197.61" />
    <polygon id="Sector-108" points="2573.52,2265.29 2525.39,2181.92 2573.52,2098.55 2669.78,2098.55 2717.91,2181.92 2669.78,2265.29" />
    <polygon id="Sector-109" points="2573.52,2090.85 2525.39,2007.49 2573.52,1924.12 2669.78,1924.12 2717.91,2007.49 2669.78,2090.85" />
    <polygon id="Sector-110" points="2496.36,1991.74 2412.99,2039.87 2329.63,1991.74 2329.63,1895.48 2412.99,1847.35 2496.36,1895.48" />
    <polygon id="Sector-111" points="2409.14,2142.81 2325.78,2190.94 2242.41,2142.81 2242.41,2046.54 2325.78,1998.41 2409.14,2046.54" />
    <polygon id="Sector-112" points="459.22,2788.58 411.08,2705.21 459.22,2621.85 555.48,2621.85 603.61,2705.21 555.48,2788.58" />
    <polygon id="Sector-113" points="308.15,2875.80 260.02,2792.43 308.15,2709.07 404.42,2709.07 452.55,2792.43 404.42,2875.80" />
    <polygon id="Sector-114" points="503.48,3049.89 420.12,3098.02 336.75,3049.89 336.75,2953.62 420.12,2905.49 503.48,2953.62" />
    <polygon id="Sector-115" points="677.91,3049.89 594.55,3098.02 511.18,3049.89 511.18,2953.62 594.55,2905.49 677.91,2953.62" />
    <polygon id="Sector-116" points="610.28,2875.80 562.15,2792.43 610.28,2709.07 706.54,2709.07 754.67,2792.43 706.54,2875.80" />
    <polygon id="Sector-117" points="3094.34,3049.89 3010.98,3098.02 2927.61,3049.89 2927.61,2953.62 3010.98,2905.49 3094.34,2953.62" />
    <polygon id="Sector-118" points="3026.70,2875.80 2978.57,2792.43 3026.70,2709.07 3122.97,2709.07 3171.10,2792.43 3122.97,2875.80" />
    <polygon id="Sector-119" points="2875.64,2788.58 2827.51,2705.21 2875.64,2621.85 2971.90,2621.85 3020.03,2705.21 2971.90,2788.58" />
    <polygon id="Sector-120" points="2724.58,2875.80 2676.45,2792.43 2724.58,2709.07 2820.84,2709.07 2868.97,2792.43 2820.84,2875.80" />
    <polygon id="Sector-121" points="2919.91,3049.89 2836.54,3098.02 2753.18,3049.89 2753.18,2953.62 2836.54,2905.49 2919.91,2953.62" />
    <polygon id="Sector-122" points="336.75,1140.15 420.12,1092.02 503.48,1140.15 503.48,1236.42 420.12,1284.55 336.75,1236.42" />
    <polygon id="Sector-124" points="459.22,1567.56 411.08,1484.19 459.22,1400.83 555.48,1400.83 603.61,1484.19 555.48,1567.56" />
    <polygon id="Sector-125" points="610.28,1480.34 562.15,1396.98 610.28,1313.61 706.54,1313.61 754.67,1396.98 706.54,1480.34" />
    <polygon id="Sector-126" points="511.18,1140.15 594.55,1092.02 677.92,1140.15 677.92,1236.42 594.55,1284.55 511.18,1236.42" />
    <polygon id="Sector-127" points="2875.64,1567.56 2827.51,1484.19 2875.64,1400.83 2971.90,1400.83 3020.03,1484.19 2971.90,1567.56" />
    <polygon id="Sector-128" points="3026.70,1480.34 2978.57,1396.98 3026.70,1313.61 3122.97,1313.61 3171.10,1396.98 3122.97,1480.34" />
    <polygon id="Sector-129" points="2927.61,1140.15 3010.98,1092.02 3094.34,1140.15 3094.34,1236.42 3010.98,1284.55 2927.61,1236.42" />
    <polygon id="Sector-131" points="2724.58,1480.34 2676.45,1396.98 2724.58,1313.61 2820.84,1313.61 2868.97,1396.98 2820.84,1480.34" />
    <polygon id="Sector-132" points="1624.20,2595.99 1540.83,2644.12 1457.47,2595.99 1457.47,2499.73 1540.83,2451.60 1624.20,2499.73" />
    <polygon id="Sector-133" points="1763.36,2609.97 1811.49,2693.34 1763.36,2776.71 1667.10,2776.71 1618.97,2693.34 1667.10,2609.97" />
    <polygon id="Sector-135" points="1885.85,2444.93 1802.48,2493.06 1719.12,2444.93 1719.12,2348.67 1802.48,2300.54 1885.85,2348.67" />
    <polygon id="Sector-136" points="1711.42,2444.93 1628.05,2493.06 1544.69,2444.93 1544.69,2348.67 1628.05,2300.54 1711.42,2348.67" />
    <polygon id="Sector-137" points="4302.27,2444.93 4218.91,2493.06 4135.54,2444.93 4135.54,2348.67 4218.91,2300.54 4302.27,2348.67" />
    <polygon id="Sector-138" points="4127.84,2444.93 4044.48,2493.06 3961.11,2444.93 3961.11,2348.67 4044.48,2300.54 4127.84,2348.67" />
    <polygon id="Sector-139" points="4040.63,2595.99 3957.26,2644.12 3873.90,2595.99 3873.90,2499.73 3957.26,2451.60 4040.63,2499.73" />
    <polygon id="Sector-140" points="4179.79,2609.97 4227.92,2693.34 4179.79,2776.71 4083.53,2776.71 4035.40,2693.34 4083.53,2609.97" />
    <polygon id="Sector-141" points="4389.49,2595.99 4306.12,2644.12 4222.76,2595.99 4222.76,2499.73 4306.12,2451.60 4389.49,2499.73" />
    <polygon id="Sector-142" points="1711.42,1840.68 1628.05,1888.81 1544.69,1840.68 1544.69,1744.42 1628.05,1696.29 1711.42,1744.42" />
    <polygon id="Sector-143" points="1885.85,1840.68 1802.48,1888.81 1719.12,1840.68 1719.12,1744.42 1802.48,1696.29 1885.85,1744.42" />
    <polygon id="Sector-144" points="1973.06,1689.62 1889.70,1737.75 1806.33,1689.62 1806.33,1593.36 1889.70,1545.23 1973.06,1593.36" />
    <polygon id="Sector-145" points="1667.17,1580.01 1619.04,1496.64 1667.17,1413.28 1763.43,1413.28 1811.56,1496.64 1763.43,1580.01" />
    <polygon id="Sector-146" points="1624.20,1689.62 1540.83,1737.75 1457.47,1689.62 1457.47,1593.36 1540.83,1545.23 1624.20,1593.36" />
    <polygon id="Sector-147" points="4389.49,1689.62 4306.12,1737.75 4222.76,1689.62 4222.76,1593.36 4306.12,1545.23 4389.49,1593.36" />
    <polygon id="Sector-148" points="4083.60,1580.01 4035.47,1496.64 4083.60,1413.28 4179.86,1413.28 4227.99,1496.64 4179.86,1580.01" />
    <polygon id="Sector-149" points="4040.63,1689.62 3957.26,1737.75 3873.90,1689.62 3873.90,1593.36 3957.26,1545.23 4040.63,1593.36" />
    <polygon id="Sector-150" points="4127.84,1840.68 4044.48,1888.81 3961.11,1840.68 3961.11,1744.42 4044.48,1696.29 4127.84,1744.42" />
    <polygon id="Sector-151" points="4302.27,1840.68 4218.91,1888.81 4135.54,1840.68 4135.54,1744.42 4218.91,1696.29 4302.27,1744.42" />
    <polygon id="Sector-152" points="4389.49,2293.87 4306.12,2342.00 4222.76,2293.87 4222.76,2197.61 4306.12,2149.47 4389.49,2197.61" />
    <polygon id="Sector-153" points="4563.92,2293.87 4480.56,2342.00 4397.19,2293.87 4397.19,2197.61 4480.56,2149.47 4563.92,2197.61" />
    <polygon id="Sector-154" points="4651.14,2142.81 4567.77,2190.94 4484.41,2142.81 4484.41,2046.54 4567.77,1998.41 4651.14,2046.54" />
    <polygon id="Sector-155" points="4563.92,1991.74 4480.56,2039.87 4397.19,1991.74 4397.19,1895.48 4480.56,1847.35 4563.92,1895.48" />
    <polygon id="Sector-156" points="4389.49,1991.74 4306.12,2039.87 4222.76,1991.74 4222.76,1895.48 4306.12,1847.35 4389.49,1895.48" />
    <polygon id="Sector-157" points="4302.27,2142.81 4218.91,2190.94 4135.54,2142.81 4135.54,2046.54 4218.91,1998.41 4302.27,2046.54" />
    <polygon id="Sector-158" points="4825.57,2747.05 4742.20,2795.19 4658.84,2747.05 4658.84,2650.79 4742.20,2602.66 4825.57,2650.79" />
    <polygon id="Sector-159" points="4912.78,2595.99 4829.42,2644.12 4746.05,2595.99 4746.05,2499.73 4829.42,2451.60 4912.78,2499.73" />
    <polygon id="Sector-160" points="4825.57,2444.93 4742.20,2493.06 4658.84,2444.93 4658.84,2348.67 4742.20,2300.54 4825.57,2348.67" />
    <polygon id="Sector-161" points="4651.14,2444.93 4567.77,2493.06 4484.41,2444.93 4484.41,2348.67 4567.77,2300.54 4651.14,2348.67" />
    <polygon id="Sector-162" points="4563.92,2595.99 4480.56,2644.12 4397.19,2595.99 4397.19,2499.73 4480.56,2451.60 4563.92,2499.73" />
    <polygon id="Sector-163" points="4651.14,2747.05 4567.77,2795.19 4484.41,2747.05 4484.41,2650.79 4567.77,2602.66 4651.14,2650.79" />
    <polygon id="Sector-164" points="610.28,2352.50 562.15,2269.14 610.28,2185.77 706.54,2185.77 754.67,2269.14 706.54,2352.50" />
    <polygon id="Sector-166" points="308.15,2352.50 260.02,2269.14 308.15,2185.77 404.42,2185.77 452.55,2269.14 404.42,2352.50" />
    <polygon id="Sector-167" points="308.15,2526.93 260.02,2443.57 308.15,2360.20 404.42,2360.20 452.55,2443.57 404.42,2526.93" />
    <polygon id="Sector-168" points="459.22,2614.15 411.08,2530.78 459.22,2447.42 555.48,2447.42 603.61,2530.78 555.48,2614.15" />
    <polygon id="Sector-169" points="610.28,2526.93 562.15,2443.57 610.28,2360.20 706.54,2360.20 754.67,2443.57 706.54,2526.93" />
    <polygon id="Sector-170" points="459.22,1741.99 411.08,1658.63 459.22,1575.26 555.48,1575.26 603.61,1658.63 555.48,1741.99" />
    <polygon id="Sector-171" points="308.15,1829.21 260.02,1745.84 308.15,1662.48 404.42,1662.48 452.55,1745.84 404.42,1829.21" />
    <polygon id="Sector-172" points="308.15,2003.64 260.02,1920.27 308.15,1836.91 404.42,1836.91 452.55,1920.27 404.42,2003.64" />
    <polygon id="Sector-173" points="459.22,2090.85 411.08,2007.49 459.22,1924.12 555.48,1924.12 603.61,2007.49 555.48,2090.85" />
    <polygon id="Sector-174" points="610.28,2003.64 562.15,1920.27 610.28,1836.91 706.54,1836.91 754.67,1920.27 706.54,2003.64" />
    <polygon id="Sector-175" points="610.28,1829.21 562.15,1745.84 610.28,1662.48 706.54,1662.48 754.67,1745.84 706.54,1829.21" />
    <polygon id="Sector-176" points="4563.92,1689.62 4480.56,1737.75 4397.19,1689.62 4397.19,1593.36 4480.56,1545.23 4563.92,1593.36" />
    <polygon id="Sector-177" points="4651.14,1840.68 4567.77,1888.81 4484.41,1840.68 4484.41,1744.42 4567.77,1696.29 4651.14,1744.42" />
    <polygon id="Sector-178" points="4825.57,1840.68 4742.20,1888.81 4658.84,1840.68 4658.84,1744.42 4742.20,1696.29 4825.57,1744.42" />
    <polygon id="Sector-179" points="4912.78,1689.62 4829.42,1737.75 4746.05,1689.62 4746.05,1593.36 4829.42,1545.23 4912.78,1593.36" />
    <polygon id="Sector-180" points="4825.57,1538.56 4742.20,1586.69 4658.84,1538.56 4658.84,1442.30 4742.20,1394.16 4825.57,1442.30" />
    <polygon id="Sector-181" points="4651.14,1538.56 4567.77,1586.69 4484.41,1538.56 4484.41,1442.30 4567.77,1394.16 4651.14,1442.30" />
    <polygon id="Sector-182" points="3026.70,2352.50 2978.57,2269.14 3026.70,2185.77 3122.97,2185.77 3171.10,2269.14 3122.97,2352.50" />
    <polygon id="Sector-183" points="2875.64,2265.29 2827.51,2181.92 2875.64,2098.56 2971.90,2098.56 3020.03,2181.92 2971.90,2265.29" />
    <polygon id="Sector-184" points="2724.58,2352.50 2676.45,2269.14 2724.58,2185.77 2820.84,2185.77 2868.97,2269.14 2820.84,2352.50" />
    <polygon id="Sector-185" points="2724.58,2526.93 2676.45,2443.57 2724.58,2360.20 2820.84,2360.20 2868.97,2443.57 2820.84,2526.93" />
    <polygon id="Sector-186" points="2875.64,2614.15 2827.51,2530.78 2875.64,2447.42 2971.90,2447.42 3020.03,2530.78 2971.90,2614.15" />
    <polygon id="Sector-187" points="3026.70,2526.93 2978.57,2443.57 3026.70,2360.20 3122.97,2360.20 3171.10,2443.57 3122.97,2526.93" />
    <polygon id="Sector-188" points="2875.64,1741.99 2827.51,1658.63 2875.64,1575.26 2971.90,1575.26 3020.03,1658.63 2971.90,1741.99" />
    <polygon id="Sector-189" points="2724.58,1829.21 2676.45,1745.84 2724.58,1662.48 2820.84,1662.48 2868.97,1745.84 2820.84,1829.21" />
    <polygon id="Sector-190" points="2724.58,2003.64 2676.45,1920.27 2724.58,1836.91 2820.84,1836.91 2868.97,1920.27 2820.84,2003.64" />
    <polygon id="Sector-191" points="2875.64,2090.85 2827.51,2007.49 2875.64,1924.12 2971.90,1924.12 3020.03,2007.49 2971.90,2090.85" />
    <polygon id="Sector-192" points="3026.70,2003.64 2978.57,1920.27 3026.70,1836.91 3122.97,1836.91 3171.10,1920.27 3122.97,2003.64" />
    <polygon id="Sector-193" points="3026.70,1829.21 2978.57,1745.84 3026.70,1662.48 3122.97,1662.48 3171.10,1745.84 3122.97,1829.21" />
    <polygon id="Sector-194" points="2147.50,1689.62 2064.13,1737.75 1980.76,1689.62 1980.76,1593.36 2064.13,1545.23 2147.49,1593.36" />
    <polygon id="Sector-195" points="2234.71,1840.68 2151.35,1888.81 2067.98,1840.68 2067.98,1744.42 2151.35,1696.29 2234.71,1744.42" />
    <polygon id="Sector-196" points="2409.14,1840.68 2325.78,1888.81 2242.41,1840.68 2242.41,1744.42 2325.78,1696.29 2409.14,1744.42" />
    <polygon id="Sector-197" points="2496.36,1689.62 2412.99,1737.75 2329.63,1689.62 2329.63,1593.36 2412.99,1545.23 2496.36,1593.36" />
    <polygon id="Sector-198" points="2409.14,1538.56 2325.78,1586.69 2242.41,1538.56 2242.41,1442.30 2325.78,1394.16 2409.14,1442.30" />
    <polygon id="Sector-199" points="2234.71,1538.56 2151.35,1586.69 2067.98,1538.56 2067.98,1442.30 2151.35,1394.16 2234.71,1442.30" />
    <polygon id="Sector-200" points="1973.06,2293.87 1889.70,2342.00 1806.33,2293.87 1806.33,2197.61 1889.70,2149.47 1973.06,2197.61" />
    <polygon id="Sector-201" points="2147.50,2293.87 2064.13,2342.00 1980.76,2293.87 1980.76,2197.61 2064.13,2149.47 2147.50,2197.61" />
    <polygon id="Sector-202" points="2234.71,2142.81 2151.35,2190.94 2067.98,2142.81 2067.98,2046.54 2151.35,1998.41 2234.71,2046.54" />
    <polygon id="Sector-203" points="2147.50,1991.74 2064.13,2039.87 1980.76,1991.74 1980.76,1895.48 2064.13,1847.35 2147.49,1895.48" />
    <polygon id="Sector-204" points="1973.06,1991.74 1889.70,2039.87 1806.33,1991.74 1806.33,1895.48 1889.70,1847.35 1973.06,1895.48" />
    <polygon id="Sector-205" points="1885.85,2142.81 1802.48,2190.94 1719.12,2142.81 1719.12,2046.54 1802.48,1998.41 1885.85,2046.54" />
    <polygon id="Sector-206" points="2409.14,2747.05 2325.78,2795.19 2242.41,2747.05 2242.41,2650.79 2325.78,2602.66 2409.14,2650.79" />
    <polygon id="Sector-207" points="2496.36,2595.99 2412.99,2644.12 2329.63,2595.99 2329.63,2499.73 2412.99,2451.60 2496.36,2499.73" />
    <polygon id="Sector-208" points="2409.14,2444.93 2325.78,2493.06 2242.41,2444.93 2242.41,2348.67 2325.78,2300.54 2409.14,2348.67" />
    <polygon id="Sector-209" points="2234.71,2444.93 2151.35,2493.06 2067.98,2444.93 2067.98,2348.67 2151.35,2300.54 2234.71,2348.67" />
    <polygon id="Sector-210" points="2147.49,2595.99 2064.13,2644.12 1980.76,2595.99 1980.76,2499.73 2064.13,2451.60 2147.49,2499.73" />
    <polygon id="Sector-211" points="2234.71,2747.05 2151.35,2795.19 2067.98,2747.05 2067.98,2650.79 2151.35,2602.66 2234.71,2650.79" />
    <polygon id="Sector-212" points="1624.20,2293.87 1540.83,2342.00 1457.47,2293.87 1457.47,2197.61 1540.83,2149.47 1624.20,2197.61" />
    <polygon id="Sector-214" points="1624.20,1991.74 1540.83,2039.87 1457.47,1991.74 1457.47,1895.48 1540.83,1847.35 1624.20,1895.48" />
    <polygon id="Sector-215" points="1449.77,1991.74 1366.40,2039.87 1283.04,1991.74 1283.04,1895.48 1366.40,1847.35 1449.77,1895.48" />
    <polygon id="Sector-216" points="1362.55,2142.81 1279.19,2190.94 1195.82,2142.81 1195.82,2046.54 1279.19,1998.41 1362.55,2046.54" />
    <polygon id="Sector-217" points="1449.77,2293.87 1366.40,2342.00 1283.04,2293.87 1283.04,2197.61 1366.40,2149.47 1449.77,2197.61" />
    <polygon id="Sector-218" points="1188.12,1538.56 1104.76,1586.69 1021.39,1538.56 1021.39,1442.30 1104.76,1394.16 1188.12,1442.30" />
    <polygon id="Sector-219" points="1100.91,1689.62 1017.54,1737.75 934.18,1689.62 934.18,1593.36 1017.54,1545.23 1100.91,1593.36" />
    <polygon id="Sector-220" points="1188.12,1840.68 1104.76,1888.81 1021.39,1840.68 1021.39,1744.42 1104.76,1696.29 1188.12,1744.42" />
    <polygon id="Sector-221" points="1362.55,1840.68 1279.19,1888.81 1195.82,1840.68 1195.82,1744.42 1279.19,1696.29 1362.55,1744.42" />
    <polygon id="Sector-222" points="1449.77,1689.62 1366.40,1737.75 1283.04,1689.62 1283.04,1593.36 1366.40,1545.23 1449.77,1593.36" />
    <polygon id="Sector-223" points="1362.55,1538.56 1279.19,1586.69 1195.82,1538.56 1195.82,1442.30 1279.19,1394.16 1362.55,1442.30" />
    <polygon id="Sector-224" points="2234.71,1236.43 2151.35,1284.56 2067.98,1236.43 2067.98,1140.17 2151.34,1092.04 2234.71,1140.17" />
    <polygon id="Sector-225" points="1667.17,1055.45 1619.04,972.08 1667.17,888.72 1763.43,888.72 1811.56,972.08 1763.43,1055.45" />
    <polygon id="Sector-226" points="1362.55,1236.43 1279.19,1284.56 1195.82,1236.43 1195.82,1140.17 1279.19,1092.04 1362.55,1140.17" />
    <polygon id="Sector-228" points="1667.17,1404.31 1619.04,1320.95 1667.17,1237.58 1763.43,1237.58 1811.56,1320.95 1763.43,1404.31" />
    <polygon id="Sector-229" points="2147.50,1387.50 2064.13,1435.63 1980.76,1387.50 1980.76,1291.23 2064.13,1243.10 2147.50,1291.23" />
    <polygon id="Sector-230" points="4083.60,1404.31 4035.47,1320.95 4083.60,1237.58 4179.86,1237.58 4227.99,1320.95 4179.86,1404.31" />
    <polygon id="Sector-231" points="4563.92,1387.50 4480.56,1435.63 4397.19,1387.50 4397.19,1291.23 4480.56,1243.10 4563.92,1291.23" />
    <polygon id="Sector-232" points="4651.14,1236.43 4567.77,1284.56 4484.41,1236.43 4484.41,1140.17 4567.77,1092.04 4651.14,1140.17" />
    <polygon id="Sector-233" points="4083.60,1055.45 4035.47,972.08 4083.60,888.72 4179.86,888.72 4227.99,972.08 4179.86,1055.45" />
    <polygon id="Sector-234" points="3778.98,1236.43 3695.61,1284.56 3612.25,1236.43 3612.25,1140.17 3695.61,1092.04 3778.98,1140.17" />
    <polygon id="Sector-235" points="3866.19,1387.50 3782.83,1435.63 3699.46,1387.50 3699.46,1291.23 3782.83,1243.10 3866.19,1291.23" />
    <polygon id="Sector-236" points="3604.55,1840.68 3521.18,1888.81 3437.82,1840.68 3437.82,1744.42 3521.18,1696.29 3604.55,1744.42" />
    <polygon id="Sector-237" points="3778.98,1840.68 3695.61,1888.81 3612.25,1840.68 3612.25,1744.42 3695.61,1696.29 3778.98,1744.42" />
    <polygon id="Sector-238" points="3866.19,1689.62 3782.83,1737.75 3699.46,1689.62 3699.46,1593.36 3782.83,1545.23 3866.19,1593.36" />
    <polygon id="Sector-239" points="3778.98,1538.56 3695.61,1586.69 3612.25,1538.56 3612.25,1442.30 3695.61,1394.16 3778.98,1442.30" />
    <polygon id="Sector-240" points="3604.55,1538.56 3521.18,1586.69 3437.82,1538.56 3437.82,1442.30 3521.18,1394.16 3604.55,1442.30" />
    <polygon id="Sector-241" points="3517.33,1689.62 3433.97,1737.75 3350.60,1689.62 3350.60,1593.36 3433.97,1545.23 3517.33,1593.36" />
    <polygon id="Sector-242" points="4040.63,2293.87 3957.26,2342.00 3873.90,2293.87 3873.90,2197.61 3957.26,2149.47 4040.63,2197.61" />
    <polygon id="Sector-243" points="4127.84,2142.81 4044.48,2190.94 3961.11,2142.81 3961.11,2046.54 4044.48,1998.41 4127.84,2046.54" />
    <polygon id="Sector-244" points="4040.63,1991.74 3957.26,2039.87 3873.90,1991.74 3873.90,1895.48 3957.26,1847.35 4040.63,1895.48" />
    <polygon id="Sector-245" points="3866.19,1991.74 3782.83,2039.87 3699.46,1991.74 3699.46,1895.48 3782.83,1847.35 3866.19,1895.48" />
    <polygon id="Sector-247" points="3866.19,2293.87 3782.83,2342.00 3699.46,2293.87 3699.46,2197.61 3782.83,2149.47 3866.19,2197.61" />
    <polygon id="Sector-248" points="3604.55,2747.05 3521.18,2795.19 3437.82,2747.05 3437.82,2650.79 3521.18,2602.66 3604.55,2650.79" />
    <polygon id="Sector-249" points="3778.98,2747.05 3695.61,2795.19 3612.25,2747.05 3612.25,2650.79 3695.61,2602.66 3778.98,2650.79" />
    <polygon id="Sector-250" points="3866.19,2595.99 3782.83,2644.12 3699.46,2595.99 3699.46,2499.73 3782.83,2451.60 3866.19,2499.73" />
    <polygon id="Sector-251" points="3778.98,2444.93 3695.61,2493.06 3612.25,2444.93 3612.25,2348.67 3695.61,2300.54 3778.98,2348.67" />
    <polygon id="Sector-252" points="3604.55,2444.93 3521.18,2493.06 3437.82,2444.93 3437.82,2348.67 3521.18,2300.54 3604.55,2348.67" />
    <polygon id="Sector-253" points="3517.33,2595.99 3433.97,2644.12 3350.60,2595.99 3350.60,2499.73 3433.97,2451.60 3517.33,2499.73" />
    <polygon id="Sector-254" points="4651.14,3049.18 4567.77,3097.31 4484.41,3049.18 4484.41,2952.92 4567.77,2904.79 4651.14,2952.92" />
    <polygon id="Sector-255" points="4563.92,2898.12 4480.56,2946.25 4397.19,2898.12 4397.19,2801.85 4480.56,2753.72 4563.92,2801.85" />
    <polygon id="Sector-256" points="4179.79,2784.41 4227.92,2867.77 4179.79,2951.14 4083.53,2951.14 4035.40,2867.77 4083.53,2784.41" />
    <polygon id="Sector-257" points="3866.19,2898.12 3782.83,2946.25 3699.46,2898.12 3699.46,2801.85 3782.83,2753.72 3866.19,2801.85" />
    <polygon id="Sector-258" points="3778.98,3049.18 3695.61,3097.31 3612.25,3049.18 3612.25,2952.92 3695.61,2904.79 3778.98,2952.92" />
    <polygon id="Sector-259" points="4179.79,3133.27 4227.92,3216.63 4179.79,3300.00 4083.53,3300.00 4035.40,3216.63 4083.53,3133.27" />
    <polygon id="Sector-260" points="1763.36,2784.41 1811.49,2867.77 1763.36,2951.14 1667.10,2951.14 1618.97,2867.77 1667.10,2784.41" />
    <polygon id="Sector-261" points="1449.77,2898.12 1366.40,2946.25 1283.04,2898.12 1283.04,2801.85 1366.40,2753.72 1449.77,2801.85" />
    <polygon id="Sector-262" points="1362.55,3049.18 1279.19,3097.31 1195.82,3049.18 1195.82,2952.92 1279.19,2904.79 1362.55,2952.92" />
    <polygon id="Sector-263" points="1763.36,3133.27 1811.49,3216.63 1763.36,3300.00 1667.10,3300.00 1618.97,3216.63 1667.10,3133.27" />
    <polygon id="Sector-264" points="2234.71,3049.18 2151.35,3097.31 2067.98,3049.18 2067.98,2952.92 2151.35,2904.79 2234.71,2952.92" />
    <polygon id="Sector-265" points="2147.49,2898.12 2064.13,2946.25 1980.76,2898.12 1980.76,2801.85 2064.13,2753.72 2147.50,2801.85" />
    <polygon id="Sector-266" points="1188.12,2444.93 1104.76,2493.06 1021.39,2444.93 1021.39,2348.67 1104.76,2300.54 1188.12,2348.67" />
    <polygon id="Sector-267" points="1100.91,2595.99 1017.54,2644.12 934.18,2595.99 934.18,2499.73 1017.54,2451.60 1100.91,2499.73" />
    <polygon id="Sector-268" points="1188.12,2747.05 1104.76,2795.19 1021.39,2747.05 1021.39,2650.79 1104.76,2602.66 1188.12,2650.79" />
    <polygon id="Sector-269" points="1362.55,2747.05 1279.19,2795.19 1195.82,2747.05 1195.82,2650.79 1279.19,2602.66 1362.55,2650.79" />
    <polygon id="Sector-270" points="1449.77,2595.99 1366.40,2644.12 1283.04,2595.99 1283.04,2499.73 1366.40,2451.60 1449.77,2499.73" />
    <polygon id="Sector-271" points="1362.55,2444.93 1279.19,2493.06 1195.82,2444.93 1195.82,2348.67 1279.19,2300.54 1362.55,2348.67" />
    <polygon id="Sector-Biomass-Synthesis-Facility" points="4476.71,2444.93 4393.34,2493.06 4309.97,2444.93 4309.97,2348.67 4393.34,2300.54 4476.71,2348.67" />
    <polygon id="Sector-Desolate-Rift" points="308.15,1480.34 260.02,1396.98 308.15,1313.61 404.42,1313.61 452.55,1396.98 404.42,1480.34" />
    <polygon id="Sector-Extraction-Point" points="459.22,2265.29 411.08,2181.92 459.22,2098.56 555.48,2098.56 603.61,2181.92 555.48,2265.29" />
    <polygon id="Sector-Frozen-Forest" points="1536.98,1840.68 1453.62,1888.81 1370.25,1840.68 1370.25,1744.42 1453.62,1696.29 1536.98,1744.42" />
    <polygon id="Sector-Fungal-Pass" points="2321.93,2595.99 2238.56,2644.12 2155.20,2595.99 2155.20,2499.73 2238.56,2451.60 2321.93,2499.73" />
    <polygon id="Sector-Ground-Zero" points="459.22,1916.42 411.08,1833.06 459.22,1749.69 555.48,1749.69 603.61,1833.06 555.48,1916.42" />
    <polygon id="Sector-IMPACT-0078" points="1449.77,1387.50 1366.40,1435.63 1283.04,1387.50 1283.04,1291.23 1366.40,1243.10 1449.77,1291.23" />
    <polygon id="Sector-Nuclear-Production-Complex" points="2753.18,1140.15 2836.54,1092.02 2919.91,1140.15 2919.91,1236.42 2836.54,1284.55 2753.18,1236.42" />
    <polygon id="Sector-Overgrowth" points="1973.06,2595.99 1889.70,2644.12 1806.33,2595.99 1806.33,2499.73 1889.70,2451.60 1973.06,2499.73" />
    <polygon id="Sector-Planetary-Launch-Terminal" points="4825.57,2142.81 4742.20,2190.94 4658.84,2142.81 4658.84,2046.54 4742.20,1998.41 4825.57,2046.54" />
    <polygon id="Sector-Rouinous-Shores" points="1711.42,2142.81 1628.05,2190.94 1544.69,2142.81 1544.69,2046.54 1628.05,1998.41 1711.42,2046.54" />
    <polygon id="Sector-Salt-Flats" points="1100.91,1991.74 1017.54,2039.87 934.18,1991.74 934.18,1895.48 1017.54,1847.35 1100.91,1895.48" />
    <polygon id="Sector-Stained-Mountains" points="2060.28,2142.81 1976.91,2190.94 1893.55,2142.81 1893.55,2046.54 1976.91,1998.41 2060.28,2046.54" />
    <polygon id="Sector-Tar-Fields" points="1275.34,1689.62 1191.97,1737.75 1108.61,1689.62 1108.61,1593.36 1191.97,1545.23 1275.34,1593.36" />
    <polygon id="Sector-The-Craters" points="2875.64,1916.42 2827.51,1833.06 2875.64,1749.69 2971.90,1749.69 3020.03,1833.06 2971.90,1916.42" />
    <polygon id="Sector-Windswept-Islands" points="3778.98,2142.81 3695.61,2190.94 3612.25,2142.81 3612.25,2046.54 3695.61,1998.41 3778.98,2046.54" />
  </g>
</svg>
