<?xml version="1.0" encoding="UTF-8"?>
<svg version="1.1" xmlns="http://www.w3.org/2000/svg" width="32" height="32">
<path d="M0 0 C5.51847194 1.34994878 8.80373613 5.12333405 11.90625 9.7109375 C12.96875 13.2734375 12.96875 13.2734375 11.90625 16.7109375 C9.71549466 20.18423588 7.42803915 22.57961083 3.90625 24.7109375 C-0.23308495 25.58209855 -3.97581874 25.72277204 -8.09375 24.7109375 C-10.421875 23.1640625 -10.421875 23.1640625 -12.09375 20.7109375 C-12.49475915 17.88028466 -12.65497899 15.52747091 -12.59375 12.7109375 C-12.60921875 11.999375 -12.6246875 11.2878125 -12.640625 10.5546875 C-12.61531085 7.16259185 -12.34280507 5.06827739 -10.38671875 2.26171875 C-6.87091617 -0.11608981 -4.16403494 -0.14551735 0 0 Z " fill="#2A2A2A" transform="translate(16.09375,3.2890625)"/>
<path d="M0 0 C3.9882205 2.68930465 8.30063217 6.37380245 9.57421875 11.15625 C9.5625 13.0625 9.5625 13.0625 9 16 C6.625 16.125 6.625 16.125 4 16 C1.77810176 13.77810176 1.07401108 11.91517292 0 9 C-1.32 9.99 -2.64 10.98 -4 12 C-6.88437779 10.70700306 -8.87219421 9.34058637 -11 7 C-8.42519197 1.25619748 -6.5276065 -0.67829652 0 0 Z " fill="#404040" transform="translate(19,4)"/>
</svg>
