<?xml version="1.0" encoding="UTF-8"?>
<svg version="1.1" xmlns="http://www.w3.org/2000/svg" width="32" height="32">
<path d="M0 0 C2.85022897 1.86625228 5.09738466 4.16354534 7.4375 6.625 C8.07365234 7.24246094 8.70980469 7.85992188 9.36523438 8.49609375 C12.22062702 11.40975972 13.84151069 13.1408211 14.59375 17.21875 C13.58220218 21.95705296 10.96673718 24.37754597 7 27 C3.60186343 28.43318355 1.4266238 28.35702686 -2 27 C-4.38749092 25.36165661 -6.47350166 23.50076122 -8.5625 21.5 C-9.09963623 20.99621826 -9.63677246 20.49243652 -10.19018555 19.97338867 C-12.97753276 17.06365022 -14.3600483 14.93362119 -14.53125 10.84375 C-13.99885501 6.99171563 -13.69293026 5.61614477 -10.9375 3 C-10.36902344 2.4225 -9.80054688 1.845 -9.21484375 1.25 C-5.8325989 -0.65885071 -3.83260889 -0.61998085 0 0 Z " fill="#D99D73" transform="translate(16,2)"/>
<path d="M0 0 C0 0.66 0 1.32 0 2 C-4.95 4.475 -4.95 4.475 -10 7 C-8.0337116 10.93257679 -5.79936879 13.56745596 -2.75 16.625 C-2.28464844 17.11484375 -1.81929687 17.6046875 -1.33984375 18.109375 C1.86193014 21.33760984 4.6026801 22.89416511 9 24 C7 27 7 27 3.125 27.9375 C-2.11596929 27.79215501 -4.97328911 24.97981627 -8.5625 21.5 C-9.0992334 20.995896 -9.6359668 20.49179199 -10.18896484 19.97241211 C-12.97852661 17.06454102 -14.36005635 14.93342886 -14.53125 10.84375 C-13.85465518 5.9483875 -12.56559657 4.46528691 -9.0234375 1.27734375 C-5.98657538 -0.63974874 -3.47503502 -0.49643357 0 0 Z " fill="#B8705C" transform="translate(16,2)"/>
<path d="M0 0 C0.31991247 3.51903714 0.37169764 5.42015168 -1.5625 8.4375 C-4 10 -4 10 -7.625 10 C-11 9 -11 9 -12.2109375 6.9375 C-12.47132812 6.298125 -12.73171875 5.65875 -13 5 C-11.39967863 4.15930585 -9.79458829 3.32768495 -8.1875 2.5 C-6.84751953 1.80390625 -6.84751953 1.80390625 -5.48046875 1.09375 C-3 0 -3 0 0 0 Z " fill="#D99D73" transform="translate(30,16)"/>
<path d="M0 0 C1.796875 0.83984375 1.796875 0.83984375 3.796875 3.83984375 C-2.638125 6.80984375 -2.638125 6.80984375 -9.203125 9.83984375 C-10.193125 8.84984375 -11.183125 7.85984375 -12.203125 6.83984375 C-12.203125 6.17984375 -12.203125 5.51984375 -12.203125 4.83984375 C-10.62779414 3.97100669 -9.04247991 3.12025307 -7.453125 2.27734375 C-6.57140625 1.80167969 -5.6896875 1.32601563 -4.78125 0.8359375 C-2.203125 -0.16015625 -2.203125 -0.16015625 0 0 Z " fill="#EAC2A9" transform="translate(25.203125,12.16015625)"/>
<path d="M0 0 C1.32 0.99 2.64 1.98 4 3 C4 3.66 4 4.32 4 5 C2.42466914 5.86883706 0.83935491 6.71959068 -0.75 7.5625 C-1.63171875 8.03816406 -2.5134375 8.51382812 -3.421875 9.00390625 C-6.20701188 10.07998186 -7.26980214 10.06528748 -10 9 C-10 7.68 -10 6.36 -10 5 C-6.7 3.35 -3.4 1.7 0 0 Z " fill="#EAC2A9" transform="translate(16,3)"/>
<path d="M0 0 C0 0.66 0 1.32 0 2 C-1.62249941 2.83819158 -3.24808497 3.6704116 -4.875 4.5 C-6.23238281 5.19609375 -6.23238281 5.19609375 -7.6171875 5.90625 C-10 7 -10 7 -12 7 C-9.14032181 0.62071789 -7.11769183 -0.40288822 0 0 Z " fill="#D99D73" transform="translate(16,2)"/>
<path d="M0 0 C0.66 0.33 1.32 0.66 2 1 C-1.32307692 4.93846154 -1.32307692 4.93846154 -4.75 5.25 C-5.4925 5.1675 -6.235 5.085 -7 5 C-4.88437775 2.67281553 -2.94982021 1.14186589 0 0 Z " fill="#EAC2A9" transform="translate(28,21)"/>
</svg>
