<?xml version="1.0" encoding="UTF-8"?>
<svg version="1.1" xmlns="http://www.w3.org/2000/svg" width="32" height="32">
<path d="M0 0 C2.6114804 1.72320131 4.70465559 3.82095651 6.875 6.0625 C7.46796875 6.62388672 8.0609375 7.18527344 8.671875 7.76367188 C11.66356012 10.77948349 12.89486102 12.36509622 13.60546875 16.65625 C12.92677046 20.40441602 12.14040096 21.80640286 9.4375 24.4375 C8.44556641 25.45650391 8.44556641 25.45650391 7.43359375 26.49609375 C3.98972542 28.62432699 1.98597534 28.62280865 -2 28 C-4.51190956 26.49460092 -6.41953097 24.6065875 -8.4375 22.5 C-8.97826172 21.9946875 -9.51902344 21.489375 -10.07617188 20.96875 C-12.91285114 18.09979499 -14.37333573 15.97301353 -14.57421875 11.875 C-13.95893689 7.72289386 -13.37511044 6.33156491 -10.375 3.5 C-9.70210937 2.8296875 -9.02921875 2.159375 -8.3359375 1.46875 C-5.17478717 -0.51886291 -3.6812493 -0.69706825 0 0 Z " fill="#AB99D3" transform="translate(16,2)"/>
<path d="M0 0 C0.33 0 0.66 0 1 0 C1.22171875 0.87011719 1.4434375 1.74023438 1.671875 2.63671875 C3.19835937 6.50231593 5.3327322 8.9617115 8.25 11.8125 C8.71535156 12.30169922 9.18070313 12.79089844 9.66015625 13.29492188 C12.94232691 16.56352984 15.39448872 17.69342011 20 18 C18.9375 20 18.9375 20 17 22 C13.74381552 22.47420162 11.2219028 22.72367339 8.30493164 20.99609375 C6.60682143 19.58601222 5.0891037 18.09364401 3.5625 16.5 C2.75135742 15.74203125 2.75135742 15.74203125 1.92382812 14.96875 C-0.99879544 12.01287282 -2.35899391 9.94431471 -2.47265625 5.71875 C-2 2 -2 2 0 0 Z " fill="#6F687E" transform="translate(4,8)"/>
<path d="M0 0 C3.97149936 0.22961559 6.08694084 2.62216616 8.8125 5.3125 C9.62332031 6.09238281 10.43414062 6.87226563 11.26953125 7.67578125 C13 10 13 10 12.88671875 12.16796875 C12 14 12 14 10 16 C6.02850064 15.77038441 3.91305916 13.37783384 1.1875 10.6875 C0.37667969 9.90761719 -0.43414063 9.12773437 -1.26953125 8.32421875 C-3 6 -3 6 -2.88671875 3.83203125 C-2 2 -2 2 0 0 Z " fill="#8C7FA9" transform="translate(12,6)"/>
</svg>
