<?xml version="1.0" encoding="UTF-8"?>
<svg version="1.1" xmlns="http://www.w3.org/2000/svg" width="32" height="32">
<path d="M0 0 C2.69990662 1.79993774 4.5418865 3.083773 6 6 C5.95510184 11.6122694 4.8752561 16.12456575 2 21 C0.35 20.67 -1.3 20.34 -3 20 C-4.485 22.475 -4.485 22.475 -6 25 C-8.71012312 24.00628819 -9.79118942 23.41541541 -11.109375 20.79296875 C-12.66272288 15.92172432 -12.58683874 11.05100489 -12 6 C-8.85645143 0.65596743 -6.11267572 -0.59928193 0 0 Z " fill="#313131" transform="translate(19,1)"/>
<path d="M0 0 C0.5775 0.78375 1.155 1.5675 1.75 2.375 C4.39360816 5.47873748 4.39360816 5.47873748 8 7 C10.00212229 6.67966043 12.00239695 6.34740923 14 6 C14.66 6.66 15.32 7.32 16 8 C15.625 11.125 15.625 11.125 15 14 C13 14 11 14 9 14 C7.3553326 16.46326712 7.3553326 16.46326712 6 19 C3.30347841 18.01127542 2.20976453 17.40787547 0.875 14.8125 C-0.11804144 11.62058108 -0.19830189 9.02273597 -0.125 5.6875 C-0.10695313 4.61886719 -0.08890625 3.55023438 -0.0703125 2.44921875 C-0.04710937 1.64097656 -0.02390625 0.83273438 0 0 Z " fill="#1D1D23" transform="translate(7,7)"/>
<path d="M0 0 C2.125 0.375 2.125 0.375 4 1 C4.625 2.875 4.625 2.875 5 5 C4.34 5.66 3.68 6.32 3 7 C0.875 6.625 0.875 6.625 -1 6 C-1.625 4.125 -1.625 4.125 -2 2 C-1.34 1.34 -0.68 0.68 0 0 Z " fill="#252528" transform="translate(20,24)"/>
<path d="M0 0 C2.0625 0.4375 2.0625 0.4375 4 1 C4.33 2.32 4.66 3.64 5 5 C3.68 5 2.36 5 1 5 C0.34 3.68 -0.32 2.36 -1 1 C-0.67 0.67 -0.34 0.34 0 0 Z " fill="#61615B" transform="translate(17,4)"/>
</svg>
