<?xml version="1.0" encoding="UTF-8"?>
<svg version="1.1" xmlns="http://www.w3.org/2000/svg" width="32" height="32">
<path d="M0 0 C4.52666763 1.71491062 7.536518 4.67791424 10.03125 8.76953125 C11.30151537 14.04149967 10.86167802 18.14061474 8.40625 22.95703125 C2.82950633 25.95194915 -2.79613577 25.64607193 -8.96875 24.76953125 C-12.34375 22.95703125 -12.34375 22.95703125 -13.96875 19.76953125 C-15.07845429 14.80302253 -15.14883902 10.70499859 -12.44921875 6.27734375 C-8.94074715 2.38826872 -5.46233656 -0.63944019 0 0 Z " fill="#F7CBA4" transform="translate(17.96875,3.23046875)"/>
<path d="M0 0 C0.3125 2.6875 0.3125 2.6875 0 6 C-1.6459651 7.68711423 -3.31237149 9.3545622 -5 11 C-6.00105392 13.40975689 -6.00105392 13.40975689 -5 16 C-3.28496672 17.99521198 -1.4742824 19.77347242 0.46875 21.546875 C1.22671875 22.26617188 1.22671875 22.26617188 2 23 C2 23.33 2 23.66 2 24 C-2.12981363 24.40488369 -4.36192987 24.39370285 -7.9375 22.1875 C-10.51175208 18.20911043 -10.88337698 15.49119701 -10.69921875 10.8046875 C-9.5627852 6.24625572 -5.15728971 0 0 0 Z " fill="#D3AE8D" transform="translate(14,4)"/>
<path d="M0 0 C0.99 0.33 1.98 0.66 3 1 C2.62875 1.9075 2.2575 2.815 1.875 3.75 C0.69640701 6.88097015 0.69640701 6.88097015 1.875 9.375 C2.24625 9.91125 2.6175 10.4475 3 11 C-1 11 -1 11 -3.25 9 C-3.8275 8.34 -4.405 7.68 -5 7 C-3.70700306 4.11562221 -2.34058637 2.12780579 0 0 Z " fill="#D3AE8D" transform="translate(17,12)"/>
</svg>
