<?xml version="1.0" encoding="UTF-8"?>
<svg version="1.1" xmlns="http://www.w3.org/2000/svg" width="32" height="32">
<path d="M0 0 C2.59375 0.5390625 2.59375 0.5390625 4.46875 1.6015625 C6.24835226 4.66643306 5.92698168 7.05660834 5.59375 10.5390625 C3.65234375 13.375 3.65234375 13.375 1.03125 15.9140625 C0.18433594 16.76742188 -0.66257812 17.62078125 -1.53515625 18.5 C-4.90575546 20.89381331 -7.34351037 21.14981798 -11.40625 21.5390625 C-11.9425 22.0753125 -12.47875 22.6115625 -13.03125 23.1640625 C-13.485 23.6178125 -13.93875 24.0715625 -14.40625 24.5390625 C-17.09375 24.2265625 -17.09375 24.2265625 -19.40625 23.5390625 C-20.00972935 19.7747364 -20.17656115 17.67951968 -18.00292969 14.46142578 C-16.01256295 12.23862627 -13.93667374 10.16450308 -11.78125 8.1015625 C-11.06839844 7.37001953 -10.35554687 6.63847656 -9.62109375 5.88476562 C-4.32921188 0.68512757 -4.32921188 0.68512757 0 0 Z " fill="#9B928B" transform="translate(23.40625,3.4609375)"/>
<path d="M0 0 C0.825 0.165 1.65 0.33 2.5 0.5 C2.5 4.5 2.5 4.5 0.92578125 6.640625 C-0.12029297 7.68476563 -0.12029297 7.68476563 -1.1875 8.75 C-1.87199219 9.45640625 -2.55648438 10.1628125 -3.26171875 10.890625 C-5.91000936 12.79480604 -7.30992862 12.8352089 -10.5 12.5 C-11.22265625 10.765625 -11.22265625 10.765625 -11.5 8.5 C-8.57531814 4.15657003 -5.24074644 0.74867806 0 0 Z " fill="#E0B28D" transform="translate(23.5,3.5)"/>
<path d="M0 0 C0.33 0 0.66 0 1 0 C1.46238956 3.51542745 1.17852289 4.75394733 -0.94140625 7.67578125 C-1.80636719 8.54589844 -2.67132813 9.41601562 -3.5625 10.3125 C-4.40941406 11.19550781 -5.25632812 12.07851563 -6.12890625 12.98828125 C-9.66381211 15.46512005 -11.77401189 15.39177887 -16 15 C-14.84826645 12.53199953 -13.95216435 10.95216435 -12 9 C-11.278125 8.773125 -10.55625 8.54625 -9.8125 8.3125 C-6.25030551 6.65014257 -4.12082349 4.30261633 -1.453125 1.4609375 C-0.97359375 0.97882812 -0.4940625 0.49671875 0 0 Z " fill="#666666" transform="translate(28,9)"/>
<path d="M0 0 C3 0.125 3 0.125 4 1.125 C4.125 4.125 4.125 4.125 4 7.125 C3 8.125 3 8.125 0.5625 8.3125 C-2 8.125 -2 8.125 -4 6.125 C-4.1875 3.5625 -4.1875 3.5625 -4 1.125 C-3 0.125 -3 0.125 0 0 Z " fill="#CFAA8C" transform="translate(8,3.875)"/>
</svg>
