<?xml version="1.0" encoding="UTF-8"?>
<svg version="1.1" xmlns="http://www.w3.org/2000/svg" width="32" height="32">
<path d="M0 0 C2 2 2 2 2 5 C4.62901288 3.47793991 6.84365964 2.15634036 9 0 C12.19834873 -0.50500243 13.5786377 -0.27331609 16.3125 1.5 C18.83210805 5.23275267 18.49582992 7.5375307 18 12 C16.625 13.6875 16.625 13.6875 15 15 C14.566875 16.175625 14.566875 16.175625 14.125 17.375 C12.6607609 20.79155789 10.87341075 22.6611773 8 25 C5.625 25.75 5.625 25.75 3 25 C-1.80673594 21.35063432 -4.40319521 17.85495088 -6 12 C-6.53625 11.505 -7.0725 11.01 -7.625 10.5 C-9 9 -9 9 -9.375 6 C-9 3 -9 3 -7.875 1.125 C-5.15781176 -0.50531294 -3.10347254 -0.33015665 0 0 Z " fill="#CB8EBF" transform="translate(11,3)"/>
<path d="M0 0 C2.69221249 1.96458749 3.80948847 3.17445006 4.5625 6.4375 C3.76770178 10.05824747 1.73312771 11.60851325 -1 14 C-4.36573933 12.55754029 -6.75010389 10.916532 -9 8 C-8.92939767 5.10530438 -8.38702969 3.56119305 -6.75 1.1875 C-4.29122834 -0.4809522 -2.91471407 -0.49763411 0 0 Z " fill="#F9A3C7" transform="translate(25,3)"/>
<path d="M0 0 C2.58276535 0.99337129 3.90098085 1.63272127 5.4375 3.9375 C5.28512499 6.37550017 4.61476646 7.67626522 3.25 9.6875 C0.5595528 11.54298083 -1.37600376 11.33581203 -4.5625 10.9375 C-6.5 9.6875 -6.5 9.6875 -7.5625 7.9375 C-7.47126711 5.10928031 -6.52365552 3.88616979 -4.8125 1.625 C-2.5625 -0.0625 -2.5625 -0.0625 0 0 Z " fill="#F9A3C7" transform="translate(14.5625,13.0625)"/>
<path d="M0 0 C0.66 0.66 1.32 1.32 2 2 C1.83198392 5.19230558 1.15262352 6.79286808 -0.75 9.375 C-3 11 -3 11 -5.6875 10.8125 C-8 10 -8 10 -9 9 C-9.4556962 3.75949367 -9.4556962 3.75949367 -7.875 1.125 C-5.15781176 -0.50531294 -3.10347254 -0.33015665 0 0 Z " fill="#F9A3C7" transform="translate(11,3)"/>
</svg>
