<?xml version="1.0" encoding="UTF-8"?>
<svg version="1.1" xmlns="http://www.w3.org/2000/svg" width="32" height="32">
<path d="M0 0 C3.99555613 1.9014996 6.80417877 4.74771962 9.90625 7.859375 C10.87401367 8.76623047 10.87401367 8.76623047 11.86132812 9.69140625 C15.00170631 12.80852238 16.46015147 14.46147065 17.23046875 18.91796875 C16.52238525 22.60608465 15.74376244 24.05753581 13.09375 26.671875 C12.4440625 27.35121094 11.794375 28.03054687 11.125 28.73046875 C8.28131969 30.42000103 6.00507772 30.93342035 2.68945312 30.77514648 C-1.48608618 29.69769779 -4.04773188 26.6170216 -6.90625 23.546875 C-7.53789063 22.92103516 -8.16953125 22.29519531 -8.8203125 21.65039062 C-11.31740899 19.06951709 -13.15308471 17.13196102 -14.13671875 13.64453125 C-13.05811898 10.0857288 -10.82082283 7.88462154 -8.21875 5.359375 C-7.73599609 4.84890625 -7.25324219 4.3384375 -6.75585938 3.8125 C-4.59246893 1.66362895 -3.0884574 0.30082377 0 0 Z " fill="#919FE7" transform="translate(14.40625,0.765625)"/>
<path d="M0 0 C4.43520784 1.53825697 7.02203676 4.71084563 10.20703125 8.06640625 C10.85220703 8.72962891 11.49738281 9.39285156 12.16210938 10.07617188 C13.74900143 11.71008296 15.32579453 13.35258772 16.89453125 15.00390625 C16.23453125 16.32390625 15.57453125 17.64390625 14.89453125 19.00390625 C11.89453125 19.00390625 11.89453125 19.00390625 10.3605957 17.81054688 C9.56721802 16.99360352 9.56721802 16.99360352 8.7578125 16.16015625 C8.18095703 15.57363281 7.60410156 14.98710937 7.00976562 14.3828125 C6.41486328 13.76277344 5.81996094 13.14273437 5.20703125 12.50390625 C4.60052734 11.88386719 3.99402344 11.26382812 3.36914062 10.625 C1.87079382 9.09125918 0.38176632 7.54842427 -1.10546875 6.00390625 C-1.10546875 9.39054335 -0.74840842 9.78059912 1.39453125 12.19140625 C2.63203125 13.58359375 2.63203125 13.58359375 3.89453125 15.00390625 C1.91453125 15.99390625 1.91453125 15.99390625 -0.10546875 17.00390625 C-3.07546875 14.03390625 -6.04546875 11.06390625 -9.10546875 8.00390625 C-2.26936496 0.00421032 -2.26936496 0.00421032 0 0 Z " fill="#A4B8FA" transform="translate(14.10546875,0.99609375)"/>
<path d="M0 0 C5.22827644 4.31901097 9.87324624 8.93873863 14.47265625 13.92578125 C17.37728111 16.30963875 19.30024971 16.71540382 23 17 C22 19 22 19 20 21 C16.02665465 21.59005876 13.48461151 21.93673673 10.03515625 19.76025391 C8.0677792 18.03573135 6.28256468 16.22703567 4.5 14.3125 C3.55253906 13.37374023 3.55253906 13.37374023 2.5859375 12.41601562 C-1.84264171 7.83885854 -1.84264171 7.83885854 -2.53125 4.16796875 C-2 2 -2 2 0 0 Z " fill="#7575C8" transform="translate(3,10)"/>
<path d="M0 0 C1.32 0.66 2.64 1.32 4 2 C3.01 3.485 3.01 3.485 2 5 C0.68 4.34 -0.64 3.68 -2 3 C-1.34 2.01 -0.68 1.02 0 0 Z " fill="#A4B8FA" transform="translate(19,18)"/>
</svg>
