<?xml version="1.0" encoding="UTF-8"?>
<svg version="1.1" xmlns="http://www.w3.org/2000/svg" width="32" height="32">
<path d="M0 0 C4.76806808 0.27246103 7.87853883 2.56802698 11 6 C14.72880174 11.03681072 16.79894011 15.65170476 16.43359375 21.984375 C15.76628146 25.08647538 14.2746264 26.85917516 12 29 C8.79826746 30.60086627 5.47422941 30.49917089 2 30 C-0.8100346 28.20636089 -2.50940468 26.98119065 -4 24 C-4.39447548 19.81855989 -4.45035186 17.69053952 -2.125 14.125 C0 12 0 12 2 11 C1.49287967 7.28111761 0.88391785 4.26545761 -1 1 C-0.67 0.67 -0.34 0.34 0 0 Z " fill="#486ACD" transform="translate(9,1)"/>
<path d="M0 0 C0 3 0 3 -1.0625 4.875 C-2.29836123 7.67628545 -1.97997426 9.13545985 -1 12 C2.52910353 14.35273568 3.84314368 14.40753493 8 14 C11.30101131 12.60075055 11.30101131 12.60075055 14 11 C13.12269491 13.70502403 12.28331029 15.68400006 10.375 17.8125 C6.9425183 19.52874085 3.71471198 19.68545281 0 19 C-2.8100346 17.20636089 -4.50940468 15.98119065 -6 13 C-6.39447548 8.81855989 -6.45035186 6.69053952 -4.125 3.125 C-2 1 -2 1 0 0 Z " fill="#363F9A" transform="translate(11,12)"/>
<path d="M0 0 C2.375 -0.125 2.375 -0.125 5 0 C7 2 7 2 7.125 4.625 C7.08375 5.40875 7.0425 6.1925 7 7 C6.01 7.33 5.02 7.66 4 8 C2.35 6.35 0.7 4.7 -1 3 C-0.67 2.01 -0.34 1.02 0 0 Z " fill="#7090EA" transform="translate(15,12)"/>
</svg>
